<?xml version="1.0" encoding="UTF-8" standalone="no"?>
<!DOCTYPE svg PUBLIC "-//W3C//DTD SVG 1.1//EN"
 "http://www.w3.org/Graphics/SVG/1.1/DTD/svg11.dtd">
<!-- Generated by graphviz version 14.1.5 (20260411.2331)
 -->
<!-- Pages: 1 -->
<svg width="1471pt" height="294pt"
 viewBox="0.00 0.00 1471.00 294.00" xmlns="http://www.w3.org/2000/svg" xmlns:xlink="http://www.w3.org/1999/xlink">
<g id="graph0" class="graph" transform="scale(1 1) rotate(0) translate(4 290)">
<polygon fill="white" stroke="none" points="-4,4 -4,-290 1466.5,-290 1466.5,4 -4,4"/>
<!-- 0 -->
<g id="node1" class="node">
<title>0</title>
<polygon fill="lightblue" stroke="black" points="196.62,-286 142.62,-286 142.62,-250 196.62,-250 196.62,-286"/>
<text xml:space="preserve" text-anchor="middle" x="169.62" y="-262.2" font-family="Helvetica,sans-Serif" font-size="14.00">a</text>
</g>
<!-- 1 -->
<g id="node2" class="node">
<title>1</title>
<polygon fill="lightblue" stroke="black" points="828.5,-286 285.25,-286 285.25,-250 828.5,-250 828.5,-286"/>
<text xml:space="preserve" text-anchor="middle" x="556.88" y="-262.2" font-family="Helvetica,sans-Serif" font-size="14.00">lit Literal { base: Decimal, digits: 10, num_digits_after_dot: 0, exponent: None, suffix: &quot;&quot; }</text>
</g>
<!-- 0&#45;&gt;1 -->
<g id="edge1" class="edge">
<title>0&#45;&gt;1</title>
<path fill="none" stroke="black" d="M196.86,-268C196.86,-268 275.48,-268 275.48,-268"/>
<polygon fill="black" stroke="black" points="275.48,-270.8 283.48,-268 275.48,-265.2 275.48,-270.8"/>
<text xml:space="preserve" text-anchor="middle" x="243.62" y="-269.7" font-family="Helvetica,sans-Serif" font-size="14.00">variable</text>
</g>
<!-- 2 -->
<g id="node3" class="node">
<title>2</title>
<polygon fill="lightblue" stroke="black" points="583.88,-192 529.88,-192 529.88,-156 583.88,-156 583.88,-192"/>
<text xml:space="preserve" text-anchor="middle" x="556.88" y="-168.2" font-family="Helvetica,sans-Serif" font-size="14.00">b</text>
</g>
<!-- 3 -->
<g id="node4" class="node">
<title>3</title>
<polygon fill="lightblue" stroke="black" points="1462.5,-161 911.75,-161 911.75,-125 1462.5,-125 1462.5,-161"/>
<text xml:space="preserve" text-anchor="middle" x="1187.12" y="-137.2" font-family="Helvetica,sans-Serif" font-size="14.00">lit Literal { base: Decimal, digits: 100, num_digits_after_dot: 0, exponent: None, suffix: &quot;&quot; }</text>
</g>
<!-- 2&#45;&gt;3 -->
<g id="edge2" class="edge">
<title>2&#45;&gt;3</title>
<path fill="none" stroke="black" d="M547.5,-155.86C547.5,-153.84 547.5,-152.5 547.5,-152.5 547.5,-152.5 902.18,-152.5 902.18,-152.5"/>
<polygon fill="black" stroke="black" points="902.18,-155.3 910.18,-152.5 902.18,-149.7 902.18,-155.3"/>
<text xml:space="preserve" text-anchor="middle" x="870.12" y="-175.7" font-family="Helvetica,sans-Serif" font-size="14.00">variable</text>
</g>
<!-- 4 -->
<g id="node5" class="node">
<title>4</title>
<polygon fill="lightblue" stroke="black" points="54,-149 0,-149 0,-113 54,-113 54,-149"/>
<text xml:space="preserve" text-anchor="middle" x="27" y="-125.2" font-family="Helvetica,sans-Serif" font-size="14.00">c</text>
</g>
<!-- 7 -->
<g id="node8" class="node">
<title>7</title>
<polygon fill="lightblue" stroke="black" points="202,-149 137.25,-149 137.25,-113 202,-113 202,-149"/>
<text xml:space="preserve" text-anchor="middle" x="169.62" y="-125.2" font-family="Helvetica,sans-Serif" font-size="14.00">binary +</text>
</g>
<!-- 4&#45;&gt;7 -->
<g id="edge7" class="edge">
<title>4&#45;&gt;7</title>
<path fill="none" stroke="black" d="M54.5,-131C54.5,-131 127.45,-131 127.45,-131"/>
<polygon fill="black" stroke="black" points="127.45,-133.8 135.45,-131 127.45,-128.2 127.45,-133.8"/>
<text xml:space="preserve" text-anchor="middle" x="95.62" y="-132.7" font-family="Helvetica,sans-Serif" font-size="14.00">variable</text>
</g>
<!-- 5 -->
<g id="node6" class="node">
<title>5</title>
<polygon fill="lightblue" stroke="black" points="1455,-36 919.25,-36 919.25,0 1455,0 1455,-36"/>
<text xml:space="preserve" text-anchor="middle" x="1187.12" y="-12.2" font-family="Helvetica,sans-Serif" font-size="14.00">lit Literal { base: Decimal, digits: 2, num_digits_after_dot: 0, exponent: None, suffix: &quot;&quot; }</text>
</g>
<!-- 6 -->
<g id="node7" class="node">
<title>6</title>
<polygon fill="lightblue" stroke="black" points="587,-98 526.75,-98 526.75,-62 587,-62 587,-98"/>
<text xml:space="preserve" text-anchor="middle" x="556.88" y="-74.2" font-family="Helvetica,sans-Serif" font-size="14.00">binary /</text>
</g>
<!-- 6&#45;&gt;3 -->
<g id="edge3" class="edge">
<title>6&#45;&gt;3</title>
<path fill="none" stroke="black" d="M587.45,-80C674.18,-80 915.5,-80 915.5,-80 915.5,-80 915.5,-115.26 915.5,-115.26"/>
<polygon fill="black" stroke="black" points="912.7,-115.26 915.5,-123.26 918.3,-115.26 912.7,-115.26"/>
<text xml:space="preserve" text-anchor="middle" x="870.12" y="-97.7" font-family="Helvetica,sans-Serif" font-size="14.00">1</text>
</g>
<!-- 6&#45;&gt;5 -->
<g id="edge4" class="edge">
<title>6&#45;&gt;5</title>
<path fill="none" stroke="black" d="M556.5,-61.73C556.5,-43.44 556.5,-18 556.5,-18 556.5,-18 909.26,-18 909.26,-18"/>
<polygon fill="black" stroke="black" points="909.26,-20.8 917.26,-18 909.26,-15.2 909.26,-20.8"/>
<text xml:space="preserve" text-anchor="middle" x="870.12" y="-19.7" font-family="Helvetica,sans-Serif" font-size="14.00">2</text>
</g>
<!-- 7&#45;&gt;1 -->
<g id="edge5" class="edge">
<title>7&#45;&gt;1</title>
<path fill="none" stroke="black" d="M202.42,-137C267.23,-137 405.5,-137 405.5,-137 405.5,-137 405.5,-240 405.5,-240"/>
<polygon fill="black" stroke="black" points="402.7,-240 405.5,-248 408.3,-240 402.7,-240"/>
<text xml:space="preserve" text-anchor="middle" x="243.62" y="-183.7" font-family="Helvetica,sans-Serif" font-size="14.00">1</text>
</g>
<!-- 7&#45;&gt;6 -->
<g id="edge6" class="edge">
<title>7&#45;&gt;6</title>
<path fill="none" stroke="black" d="M202.36,-119C297.2,-119 565.5,-119 565.5,-119 565.5,-119 565.5,-107.64 565.5,-107.64"/>
<polygon fill="black" stroke="black" points="568.3,-107.64 565.5,-99.64 562.7,-107.64 568.3,-107.64"/>
<text xml:space="preserve" text-anchor="middle" x="243.62" y="-89.7" font-family="Helvetica,sans-Serif" font-size="14.00">2</text>
</g>
</g>
</svg>
